<?xml version="1.0" encoding="utf-8"?>
<!-- Generator: Adobe Illustrator 24.1.2, SVG Export Plug-In . SVG Version: 6.00 Build 0)  -->
<svg version="1.1" id="Lag_1" xmlns="http://www.w3.org/2000/svg" xmlns:xlink="http://www.w3.org/1999/xlink" x="0px" y="0px"
	 viewBox="0 0 100 100" style="enable-background:new 0 0 100 100;" xml:space="preserve">
<g>
	<path d="M50,0.7C22.4,0.7,0,22.9,0,50.3C0,77.8,22.4,100,50,100s50-22.2,50-49.7C100,22.9,77.6,0.7,50,0.7z M90.5,69.4
		c-7.2,5.3-14.1,8.5-20.9,10.6c-0.1,0-0.2,0-0.3-0.1c-1.6-2.2-3-4.5-4.3-7c0,0,0,0,0,0c-0.1-0.1,0-0.3,0.2-0.3
		c2.3-0.9,4.4-1.9,6.5-3.1c0,0,0.1,0,0.1-0.1c0.1-0.1,0.1-0.3-0.1-0.4c-0.4-0.3-0.9-0.7-1.3-1c-0.1-0.1-0.2-0.1-0.3,0
		c-13.5,6.3-28.4,6.3-42.1,0c-0.1,0-0.2,0-0.3,0c-0.4,0.3-0.9,0.7-1.3,1c0,0-0.1,0-0.1,0.1c-0.1,0.1,0,0.3,0.1,0.4
		c2.1,1.2,4.3,2.2,6.5,3.1c0,0,0,0,0,0c0.1,0.1,0.2,0.2,0.1,0.4c-1.2,2.4-2.7,4.8-4.3,7c-0.1,0.1-0.2,0.1-0.3,0.1
		c-6.8-2.1-13.8-5.3-20.9-10.6c-0.1,0-0.1-0.1-0.1-0.2C6.1,53.5,9.1,37.7,20,21.5c0,0,0.1-0.1,0.1-0.1c5.4-2.5,11.2-4.3,17-5.3
		c0.1,0,0.2,0,0.3,0.1c0.7,1.3,1.6,3,2.2,4.4c6.3-1,12.7-1,19.2,0c0.6-1.3,1.4-3.1,2.1-4.4c0.1-0.1,0.2-0.1,0.3-0.1
		c5.9,1,11.6,2.8,17,5.3h0c0,0,0.1,0.1,0.1,0.1c9.5,13.9,14.1,29.6,12.4,47.7C90.6,69.2,90.6,69.3,90.5,69.4z"/>
	<path d="M63.1,42.8c-4.2,0-7.5,3.8-7.5,8.4c0,4.7,3.4,8.4,7.5,8.4v0c4.2,0,7.5-3.8,7.5-8.4C70.7,46.6,67.3,42.8,63.1,42.8z"/>
	<path d="M35.2,42.8c-4.2,0-7.5,3.8-7.5,8.4c0,4.7,3.4,8.4,7.5,8.4v0c4.2,0,7.5-3.8,7.5-8.4C42.8,46.6,39.5,42.8,35.2,42.8z"/>
</g>
</svg>
