<?xml version="1.0" encoding="utf-8"?>
<!-- Generator: Adobe Illustrator 24.1.2, SVG Export Plug-In . SVG Version: 6.00 Build 0)  -->
<svg version="1.1" id="Lag_1" xmlns="http://www.w3.org/2000/svg" xmlns:xlink="http://www.w3.org/1999/xlink" x="0px" y="0px"
	 viewBox="0 0 36 36" style="enable-background:new 0 0 36 36;" xml:space="preserve">
<g>
	<path fill="currentColor" d="M18.1,0.3c-9.9,0-17.9,8-17.9,17.9C0.2,28,8.2,36,18.1,36C28,36,36,28,36,18.1C36,8.3,28,0.3,18.1,0.3z M26,12h-2.3
		c-2.2,0-2.7,1.1-2.7,2.5V18h4.8L25,23h-4v12.7c-1,0.2-1.5,0.3-3,0.3c-1,0-2-0.1-3-0.3V23h-4.5v-5H15v-4c0-4.5,2.9-7,7-7
		c1.3,0,2.7,0.2,4,0.4V12z"/>
</g>
</svg>
