<?xml version="1.0" encoding="utf-8"?>
<!-- Generator: Adobe Illustrator 24.1.2, SVG Export Plug-In . SVG Version: 6.00 Build 0)  -->
<svg version="1.1" id="Lag_1" xmlns="http://www.w3.org/2000/svg" xmlns:xlink="http://www.w3.org/1999/xlink" x="0px" y="0px"
	 viewBox="0 0 100 100" style="enable-background:new 0 0 100 100;" xml:space="preserve">
<g>
	<ellipse transform="matrix(0.9732 -0.2298 0.2298 0.9732 -10.1688 12.8488)" cx="50.1" cy="50.1" rx="10.7" ry="10.7"/>
	<path d="M77.1,29.4c-1.4-2.7-3.6-4.9-6.2-6.2c-1.1-0.6-2.7-1-5.8-1.3c-3.2-0.3-7.4-0.3-13.5-0.3h-2.9c-6.1,0-10.3,0-13.5,0.3
		c-3.1,0.2-4.7,0.7-5.8,1.3c-2.7,1.4-4.9,3.6-6.2,6.2c-0.6,1.1-1,2.7-1.3,5.8c-0.3,3.2-0.3,7.4-0.3,13.5v2.9c0,6.1,0,10.3,0.3,13.5
		c0.2,3.1,0.7,4.7,1.3,5.8c1.4,2.7,3.6,4.9,6.2,6.2c1.1,0.6,2.7,1,5.8,1.3c3.2,0.3,7.4,0.3,13.5,0.3h2.9c6.1,0,10.3,0,13.5-0.3
		c3.1-0.2,4.7-0.7,5.8-1.3c2.7-1.4,4.9-3.6,6.2-6.2c0.6-1.1,1-2.7,1.3-5.8c0.3-3.2,0.3-7.4,0.3-13.5v-2.9c0-6.1,0-10.3-0.3-13.5
		C78.2,32.1,77.7,30.5,77.1,29.4z M50.1,67.9c-9.9,0-17.8-8-17.8-17.9s8-17.8,17.8-17.8s17.9,8,17.9,17.8S60,67.9,50.1,67.9z
		 M69.7,35.8c-3,0-5.4-2.4-5.4-5.4s2.4-5.4,5.4-5.4c3,0,5.4,2.4,5.4,5.4S72.6,35.8,69.7,35.8z"/>
	<path d="M50.2,0.8C22.9,0.8,0.9,22.9,0.9,50.1s22.1,49.3,49.3,49.3s49.3-22.1,49.3-49.3S77.4,0.8,50.2,0.8z M83.5,74.1
		c-2.1,4-5.3,7.3-9.4,9.4c-4.6,2.3-10.6,2.3-22.6,2.3h-2.9c-12,0-18,0-22.6-2.3c-4-2.1-7.3-5.3-9.4-9.4c-2.3-4.6-2.3-10.6-2.3-22.6
		v-2.9c0-12,0-18,2.3-22.6c2.1-4,5.3-7.3,9.4-9.4c4.6-2.3,10.6-2.3,22.6-2.3h2.9c12,0,18,0,22.6,2.3c4,2.1,7.3,5.3,9.4,9.4
		c2.3,4.6,2.3,10.6,2.3,22.6v2.9C85.8,63.5,85.8,69.5,83.5,74.1z"/>
</g>
</svg>
