<svg id="Lag_2" data-name="Lag 2" xmlns="http://www.w3.org/2000/svg" viewBox="0 0 279.84 275.64"><defs><style>.cls-1{fill:#33f;}.cls-2{fill:#1d1dff;}</style></defs><path class="cls-1" d="M1.81,3.91V279.55H281.65V3.91ZM260.5,259.14H22.42V25.42H260.5Z" transform="translate(-1.81 -3.91)"/><polygon class="cls-2" points="61.8 57.88 130.39 57.88 130.39 190.32 152.23 190.32 152.23 58.03 221.87 58.03 221.87 195.79 241.56 195.79 241.56 37.25 39.82 37.25 39.82 239.18 61.8 239.18 61.8 57.88"/><polygon class="cls-2" points="198.53 77.3 178.11 77.3 178.11 217.13 104.83 217.13 104.83 77.3 83.68 77.3 83.68 239.08 241.04 239.08 241.04 216.53 198.53 216.53 198.53 77.3"/></svg>